<svg width="59" height="84" viewBox="0 0 59 84" fill="none" xmlns="http://www.w3.org/2000/svg">
<path d="M33.8543 3.46989L37.7097 -3.16691C38.0706 -3.78809 37.8641 -4.57279 37.2447 -4.93465C36.6253 -5.29651 35.8427 -5.08952 35.4819 -4.46834L33.4244 -0.926533C33.3041 -0.719473 33.029 -0.646682 32.8225 -0.767303C32.616 -0.887923 32.5434 -1.16386 32.6637 -1.37092L33.3664 -2.58059C33.5627 -2.91842 33.4515 -3.34095 33.1146 -3.53776C32.7777 -3.73456 32.3564 -3.6231 32.1601 -3.28526L30.2736 -0.0376997C29.8494 0.692457 29.0104 1.0343 28.2358 0.851835C28.0498 0.808823 27.8764 0.744015 27.7025 0.64244L27.6156 0.591653L23.9438 6.91241C23.9288 6.92559 33.8702 3.53025 33.8543 3.46989Z" fill="#CEF0E6"/>
<path d="M50.1691 29.5146C46.7363 29.5146 43.9438 32.3149 43.9438 35.7573C43.9438 39.1997 46.7363 42 50.1691 42C53.6018 42 56.3943 39.1997 56.3943 35.7573C56.3943 32.3149 53.6018 29.5146 50.1691 29.5146ZM50.1691 40.7604C47.4122 40.7604 45.1711 38.522 45.1711 35.7484C45.1711 32.9838 47.4033 30.7364 50.1691 30.7364C52.926 30.7364 55.167 32.9749 55.167 35.7484C55.167 38.522 52.926 40.7604 50.1691 40.7604Z" fill="#B8E3DB"/>
<path d="M18.5985 41.2865C35.1996 41.2865 48.6574 27.7909 48.6574 11.1433C48.6574 -5.5044 35.1996 -19 18.5985 -19C1.9974 -19 -11.4604 -5.5044 -11.4604 11.1433C-11.4604 27.7909 1.9974 41.2865 18.5985 41.2865Z" fill="#2AC0EB"/>
<path d="M-0.0409511 2.3011C0.0789266 2.18088 0.285985 2.18088 0.405863 2.3011L1.36489 3.26281C1.48476 3.38303 1.48476 3.59067 1.36489 3.71088C1.24501 3.83109 1.03795 3.83109 0.918069 3.71088L-0.0409511 2.74917C-0.160829 2.62896 -0.160829 2.43224 -0.0409511 2.3011Z" fill="#31346B"/>
<path d="M1.37563 2.3011C1.49551 2.42131 1.49551 2.62896 1.37563 2.74917L0.416609 3.71088C0.296731 3.83109 0.0896688 3.83109 -0.0302089 3.71088C-0.150087 3.59067 -0.150087 3.38303 -0.0302089 3.26281L0.928815 2.3011C1.04869 2.18088 1.24486 2.18088 1.37563 2.3011Z" fill="#31346B"/>
<path d="M49.8131 26.3547C50.0057 26.3547 50.1618 26.1981 50.1618 26.005C50.1618 25.8118 50.0057 25.6553 49.8131 25.6553C49.6205 25.6553 49.4644 25.8118 49.4644 26.005C49.4644 26.1981 49.6205 26.3547 49.8131 26.3547Z" fill="#64B9B0"/>
<path d="M49.8131 28.1574C50.0057 28.1574 50.1618 28.0009 50.1618 27.8077C50.1618 27.6146 50.0057 27.458 49.8131 27.458C49.6205 27.458 49.4644 27.6146 49.4644 27.8077C49.4644 28.0009 49.6205 28.1574 49.8131 28.1574Z" fill="#64B9B0"/>
<path d="M51.5675 26.3547C51.7601 26.3547 51.9162 26.1981 51.9162 26.005C51.9162 25.8118 51.7601 25.6553 51.5675 25.6553C51.3749 25.6553 51.2188 25.8118 51.2188 26.005C51.2188 26.1981 51.3749 26.3547 51.5675 26.3547Z" fill="#64B9B0"/>
<path d="M51.5675 28.1574C51.7601 28.1574 51.9162 28.0009 51.9162 27.8077C51.9162 27.6146 51.7601 27.458 51.5675 27.458C51.3749 27.458 51.2188 27.6146 51.2188 27.8077C51.2188 28.0009 51.3749 28.1574 51.5675 28.1574Z" fill="#64B9B0"/>
<path d="M46.2711 26.3547C46.4637 26.3547 46.6198 26.1981 46.6198 26.005C46.6198 25.8118 46.4637 25.6553 46.2711 25.6553C46.0785 25.6553 45.9224 25.8118 45.9224 26.005C45.9224 26.1981 46.0785 26.3547 46.2711 26.3547Z" fill="#64B9B0"/>
<path d="M46.2711 28.1574C46.4637 28.1574 46.6198 28.0009 46.6198 27.8077C46.6198 27.6146 46.4637 27.458 46.2711 27.458C46.0785 27.458 45.9224 27.6146 45.9224 27.8077C45.9224 28.0009 46.0785 28.1574 46.2711 28.1574Z" fill="#64B9B0"/>
<path d="M48.0255 26.3547C48.2181 26.3547 48.3742 26.1981 48.3742 26.005C48.3742 25.8118 48.2181 25.6553 48.0255 25.6553C47.8329 25.6553 47.6768 25.8118 47.6768 26.005C47.6768 26.1981 47.8329 26.3547 48.0255 26.3547Z" fill="#64B9B0"/>
<path d="M48.0255 28.1574C48.2181 28.1574 48.3742 28.0009 48.3742 27.8077C48.3742 27.6146 48.2181 27.458 48.0255 27.458C47.8329 27.458 47.6768 27.6146 47.6768 27.8077C47.6768 28.0009 47.8329 28.1574 48.0255 28.1574Z" fill="#64B9B0"/>
<path d="M56.8966 26.3547C57.0892 26.3547 57.2453 26.1981 57.2453 26.005C57.2453 25.8118 57.0892 25.6553 56.8966 25.6553C56.704 25.6553 56.5479 25.8118 56.5479 26.005C56.5479 26.1981 56.704 26.3547 56.8966 26.3547Z" fill="#64B9B0"/>
<path d="M56.8966 28.1574C57.0892 28.1574 57.2453 28.0009 57.2453 27.8077C57.2453 27.6146 57.0892 27.458 56.8966 27.458C56.704 27.458 56.5479 27.6146 56.5479 27.8077C56.5479 28.0009 56.704 28.1574 56.8966 28.1574Z" fill="#64B9B0"/>
<path d="M58.651 26.3547C58.8436 26.3547 58.9997 26.1981 58.9997 26.005C58.9997 25.8118 58.8436 25.6553 58.651 25.6553C58.4584 25.6553 58.3022 25.8118 58.3022 26.005C58.3022 26.1981 58.4584 26.3547 58.651 26.3547Z" fill="#64B9B0"/>
<path d="M58.651 28.1574C58.8436 28.1574 58.9997 28.0009 58.9997 27.8077C58.9997 27.6146 58.8436 27.458 58.651 27.458C58.4584 27.458 58.3022 27.6146 58.3022 27.8077C58.3022 28.0009 58.4584 28.1574 58.651 28.1574Z" fill="#64B9B0"/>
<path d="M53.3546 26.3547C53.5472 26.3547 53.7033 26.1981 53.7033 26.005C53.7033 25.8118 53.5472 25.6553 53.3546 25.6553C53.162 25.6553 53.0059 25.8118 53.0059 26.005C53.0059 26.1981 53.162 26.3547 53.3546 26.3547Z" fill="#64B9B0"/>
<path d="M53.3546 28.1574C53.5472 28.1574 53.7033 28.0009 53.7033 27.8077C53.7033 27.6146 53.5472 27.458 53.3546 27.458C53.162 27.458 53.0059 27.6146 53.0059 27.8077C53.0059 28.0009 53.162 28.1574 53.3546 28.1574Z" fill="#64B9B0"/>
<path d="M55.0982 26.3547C55.2908 26.3547 55.447 26.1981 55.447 26.005C55.447 25.8118 55.2908 25.6553 55.0982 25.6553C54.9056 25.6553 54.7495 25.8118 54.7495 26.005C54.7495 26.1981 54.9056 26.3547 55.0982 26.3547Z" fill="#64B9B0"/>
<path d="M55.0982 28.1574C55.2908 28.1574 55.447 28.0009 55.447 27.8077C55.447 27.6146 55.2908 27.458 55.0982 27.458C54.9056 27.458 54.7495 27.6146 54.7495 27.8077C54.7495 28.0009 54.9056 28.1574 55.0982 28.1574Z" fill="#64B9B0"/>
<path d="M2.02682 27.7956C2.50036 27.3207 3.23695 27.3207 3.71048 27.7956L7.28829 31.3834C7.76182 31.8583 7.76182 32.597 7.28829 33.0718C6.81476 33.5467 6.07815 33.5467 5.60461 33.0718L2.02682 29.484C1.5796 29.0091 1.5796 28.2705 2.02682 27.7956Z" fill="#64B9B0"/>
<path d="M7.28849 27.7953C7.76202 28.2702 7.76202 29.0089 7.28849 29.4837L3.71068 33.0716C3.23715 33.5464 2.50056 33.5464 2.02702 33.0716C1.55349 32.5967 1.55349 31.858 2.02702 31.3832L5.60481 27.7953C6.07835 27.3469 6.81496 27.3469 7.28849 27.7953Z" fill="#64B9B0"/>
<path d="M7.70609 6.81543C5.4468 6.81543 3.61523 8.65213 3.61523 10.9178C3.61523 13.1834 5.4468 15.0201 7.70609 15.0201C9.96539 15.0201 11.797 13.1834 11.797 10.9178C11.797 8.65213 9.96539 6.81543 7.70609 6.81543ZM7.70609 14.2172C5.8855 14.2172 4.41586 12.7435 4.41586 10.9178C4.41586 9.10306 5.8855 7.6183 7.70609 7.6183C9.51572 7.6183 10.9963 9.09206 10.9963 10.9178C10.9963 12.7325 9.52669 14.2172 7.70609 14.2172Z" fill="#B8E3DB"/>
<line x1="9.5" y1="51" x2="9.5" y2="84" stroke="#84D226" stroke-width="3"/>
</svg>